<svg width="24" height="16" viewBox="0 0 24 16" fill="none" xmlns="http://www.w3.org/2000/svg">
<path d="M5.8297 15.53C4.14556 15.0928 2.75291 14.1859 1.65175 12.8095C0.550583 11.433 0 9.82986 0 7.99998C0 6.1701 0.550583 4.56694 1.65175 3.19048C2.75291 1.81402 4.14556 0.907183 5.8297 0.469955V2.51035C4.67995 2.899 3.74461 3.59532 3.02367 4.59933C2.30273 5.60333 1.94259 6.73688 1.94323 7.99998C1.94323 9.26308 2.3037 10.3966 3.02464 11.4006C3.74558 12.4046 4.6806 13.101 5.8297 13.4896V15.53ZM13.6026 15.7729C11.4489 15.7729 9.61479 15.016 8.10037 13.5022C6.58594 11.9885 5.82905 10.1544 5.8297 7.99998C5.8297 5.84623 6.58659 4.01214 8.10037 2.49772C9.61415 0.983293 11.4482 0.226403 13.6026 0.227051C14.6714 0.227051 15.6754 0.429471 16.6146 0.834311C17.5539 1.23915 18.3797 1.79783 19.0923 2.51035L17.732 3.87061C17.1976 3.33622 16.5784 2.91908 15.8743 2.61917C15.1702 2.31927 14.413 2.16964 13.6026 2.17028C11.9833 2.17028 10.6068 2.73706 9.47326 3.87061C8.33971 5.00417 7.77293 6.38062 7.77293 7.99998C7.77293 9.61934 8.33971 10.9958 9.47326 12.1294C10.6068 13.2629 11.9833 13.8297 13.6026 13.8297C14.4123 13.8297 15.1692 13.6797 15.8733 13.3798C16.5774 13.0799 17.197 12.6631 17.732 12.1294L19.0923 13.4896C18.3797 14.2021 17.5539 14.7608 16.6146 15.1657C15.6754 15.5705 14.6714 15.7729 13.6026 15.7729ZM19.4323 11.8864L18.0721 10.5262L19.6267 8.9716H12.631V7.02837H19.6267L18.0721 5.47378L19.4323 4.11352L23.3188 7.99998L19.4323 11.8864Z" fill="#55D562"/>
</svg>
